<svg width="35" height="98" viewBox="0 0 35 98" fill="none" xmlns="http://www.w3.org/2000/svg">
<path d="M17.5249 0.636362H26.1896V25.7784C26.1778 28.134 25.6155 30.1937 24.5028 31.9574C23.3902 33.7093 21.8513 35.0706 19.8864 36.0412C17.9332 37.0118 15.6724 37.4972 13.1037 37.4972C10.831 37.4972 8.76539 37.1006 6.90697 36.3075C5.06037 35.5144 3.58665 34.2834 2.4858 32.6143C1.39679 30.9453 0.858196 28.8087 0.870033 26.2045H9.62358C9.6591 27.1397 9.83665 27.9387 10.1563 28.6016C10.4877 29.2526 10.9434 29.7438 11.5234 30.0753C12.1035 30.4067 12.7959 30.5724 13.6009 30.5724C14.4413 30.5724 15.1515 30.3949 15.7315 30.0398C16.3116 29.6728 16.7495 29.1342 17.0455 28.424C17.3532 27.7138 17.513 26.8319 17.5249 25.7784V0.636362Z" fill="white"/>
<path d="M2.75214 98V61.6364H11.5412V77.0128H12.0206L24.0412 61.6364H34.3928L21.5021 77.8651L34.6236 98H24.1122L15.0568 83.7067L11.5412 88.1456V98H2.75214Z" fill="white"/>
</svg>
